<svg width="512" height="512" viewBox="0 0 512 512" fill="none" xmlns="http://www.w3.org/2000/svg">
  <!-- Background circle -->
  <circle cx="256" cy="256" r="256" fill="#f0f0f0"/>
  
  <!-- Female silhouette -->
  <path d="M256 120C289.137 120 316 146.863 316 180C316 213.137 289.137 240 256 240C222.863 240 196 213.137 196 180C196 146.863 222.863 120 256 120Z" fill="#d0d0d0"/>
  <path d="M352 384C352 328.772 309.228 284 254 284H258C202.772 284 160 328.772 160 384V400H256H352V384Z" fill="#d0d0d0"/>
  
  <!-- Hair -->
  <path d="M316 180C316 146.863 289.137 120 256 120C222.863 120 196 146.863 196 180C196 190 199 199.5 204 207.5C209 199.5 220 195 232 195C250 195 256 205 280 205C300 205 311 195 316 180Z" fill="#c0c0c0"/>
</svg>